<mxfile host="www.draw.io" modified="2020-01-21T09:07:29.234Z" agent="Mozilla/5.0 (Macintosh; Intel Mac OS X 10_15_0) AppleWebKit/537.36 (KHTML, like Gecko) Chrome/81.0.4033.2 Safari/537.36" etag="jVuGlVlrF9bQC4RjaCeX" version="12.5.5" type="github">
  <diagram id="fvlRhBsNyUuH_APF54Cz" name="第 1 页">
    <mxGraphModel dx="1426" dy="794" grid="1" gridSize="10" guides="1" tooltips="1" connect="1" arrows="1" fold="1" page="1" pageScale="1" pageWidth="827" pageHeight="1169" math="0" shadow="0">
      <root>
        <mxCell id="0"/>
        <mxCell id="1" parent="0"/>
      </root>
    </mxGraphModel>
  </diagram>
</mxfile>
